<svg width="260" height="62" viewBox="0 0 260 62" fill="none" xmlns="http://www.w3.org/2000/svg">
<g filter="url(#filter0_ii_15_638)">
<rect width="260" height="62" rx="31" fill="#2463FF"/>
<path d="M69.5781 20.5625C69.474 22.625 69.3854 24.6719 69.3125 26.7031C69.2396 28.724 69.1875 30.7552 69.1562 32.7969C69.4167 32.8177 69.6771 32.8281 69.9375 32.8281C70.2083 32.8281 70.474 32.8281 70.7344 32.8281C71.0677 32.8281 71.4062 32.8229 71.75 32.8125C72.1042 32.8021 72.4583 32.7865 72.8125 32.7656C72.8333 32.3073 72.8438 31.8594 72.8438 31.4219C72.8438 30.974 72.8438 30.5156 72.8438 30.0469C72.8438 28.4635 72.8281 26.8854 72.7969 25.3125C72.7656 23.7396 72.7135 22.1562 72.6406 20.5625H76.4844C76.2969 23.0729 76.151 25.5677 76.0469 28.0469C75.9531 30.5156 75.9062 33.0052 75.9062 35.5156C75.9062 36.7448 75.9219 37.9688 75.9531 39.1875C75.9844 40.4062 76.026 41.6354 76.0781 42.875H72.5156C72.5677 41.6354 72.6146 40.401 72.6562 39.1719C72.6979 37.9427 72.7396 36.7135 72.7812 35.4844C72.1875 35.4531 71.5938 35.4271 71 35.4062C70.4167 35.375 69.8333 35.3594 69.25 35.3594H69.125V38.5781C69.125 39.3073 69.125 40.026 69.125 40.7344C69.125 41.4427 69.1354 42.1562 69.1562 42.875H65.5781C65.6302 41.375 65.6615 39.8958 65.6719 38.4375C65.6927 36.9688 65.7031 35.4948 65.7031 34.0156C65.7031 29.5365 65.6094 25.0521 65.4219 20.5625H69.5781ZM90.5063 32.0625C90.5063 34.1562 90.3604 35.9323 90.0688 37.3906C89.7875 38.849 89.4021 40.0365 88.9125 40.9531C88.4229 41.8594 87.8448 42.5208 87.1781 42.9375C86.5115 43.3438 85.7979 43.5469 85.0375 43.5469C84.2771 43.5469 83.5635 43.3542 82.8969 42.9688C82.2302 42.5729 81.6469 41.9271 81.1469 41.0312C80.6469 40.1354 80.251 38.9531 79.9594 37.4844C79.6781 36.0156 79.5375 34.2083 79.5375 32.0625C79.5375 29.9062 79.6781 28.0781 79.9594 26.5781C80.251 25.0677 80.6469 23.8438 81.1469 22.9062C81.6469 21.9583 82.2302 21.276 82.8969 20.8594C83.5635 20.4323 84.2771 20.2188 85.0375 20.2188C85.7979 20.2188 86.5115 20.4271 87.1781 20.8438C87.8448 21.25 88.4229 21.9219 88.9125 22.8594C89.4021 23.7969 89.7875 25.0208 90.0688 26.5312C90.3604 28.0312 90.5063 29.875 90.5063 32.0625ZM87.0219 32.0625C87.0219 30.4271 86.9698 29.0469 86.8656 27.9219C86.7615 26.7969 86.6156 25.8854 86.4281 25.1875C86.251 24.4792 86.0427 23.9688 85.8031 23.6562C85.5635 23.3438 85.3083 23.1875 85.0375 23.1875C84.7563 23.1875 84.4906 23.349 84.2406 23.6719C84.001 23.9844 83.7875 24.4948 83.6 25.2031C83.4229 25.901 83.2823 26.8177 83.1781 27.9531C83.074 29.0781 83.0219 30.4479 83.0219 32.0625C83.0219 33.6667 83.074 35.0156 83.1781 36.1094C83.2823 37.1927 83.4229 38.0677 83.6 38.7344C83.7875 39.3906 84.001 39.8594 84.2406 40.1406C84.4906 40.4219 84.7563 40.5625 85.0375 40.5625C85.3083 40.5625 85.5635 40.4167 85.8031 40.125C86.0427 39.8229 86.251 39.3385 86.4281 38.6719C86.6156 37.9948 86.7615 37.1146 86.8656 36.0312C86.9698 34.9479 87.0219 33.625 87.0219 32.0625ZM109.044 21.1094L106.856 43.6094H102.731C102.7 42.6927 102.664 41.8333 102.622 41.0312C102.591 40.2188 102.544 39.4427 102.481 38.7031C102.419 37.9635 102.346 37.2396 102.263 36.5312C102.19 35.8229 102.101 35.099 101.997 34.3594C101.903 33.6198 101.794 32.8542 101.669 32.0625C101.544 31.2604 101.408 30.4062 101.263 29.5C101.065 30.6667 100.789 32.4167 100.434 34.75C100.08 37.0729 99.6531 39.974 99.1531 43.4531L94.825 43.6719L93.2625 21.2031L97.2 21.1094C97.1896 21.7552 97.1844 22.4583 97.1844 23.2188C97.174 23.875 97.1688 24.6302 97.1688 25.4844C97.1688 26.3281 97.1688 27.2292 97.1688 28.1875C97.1688 28.9479 97.1688 29.7188 97.1688 30.5C97.1688 31.2812 97.1688 32.0521 97.1688 32.8125C97.1792 33.5625 97.1844 34.2865 97.1844 34.9844C97.1948 35.6823 97.2104 36.3177 97.2313 36.8906L99.3719 23.2812H102.981L104.684 36.25C104.705 35.4792 104.726 34.6667 104.747 33.8125C104.778 32.9479 104.804 32.0781 104.825 31.2031C104.846 30.3281 104.861 29.4635 104.872 28.6094C104.893 27.7552 104.914 26.9375 104.934 26.1562C104.976 24.3333 105.013 22.5156 105.044 20.7031L109.044 21.1094ZM126.431 23.8281C126.098 23.8073 125.713 23.7917 125.275 23.7812C124.848 23.7708 124.39 23.7656 123.9 23.7656C123.827 24.7344 123.765 25.7396 123.713 26.7812C123.671 27.8125 123.634 28.8646 123.603 29.9375C123.572 31 123.551 32.0729 123.541 33.1562C123.53 34.2292 123.525 35.2917 123.525 36.3438C123.525 37.5417 123.53 38.7031 123.541 39.8281C123.561 40.9427 123.598 42.0208 123.65 43.0625H120.322C120.416 41.2917 120.489 39.4062 120.541 37.4062C120.593 35.4062 120.619 33.3906 120.619 31.3594C120.619 30.0365 120.603 28.7448 120.572 27.4844C120.541 26.224 120.509 24.9948 120.478 23.7969C119.978 23.7969 119.504 23.8021 119.056 23.8125C118.608 23.8229 118.207 23.8385 117.853 23.8594L117.884 20.5938C118.259 20.625 118.681 20.651 119.15 20.6719C119.619 20.6823 120.108 20.6927 120.619 20.7031C121.14 20.7135 121.671 20.724 122.213 20.7344C122.754 20.7344 123.285 20.7344 123.806 20.7344C124.327 20.7344 124.817 20.7344 125.275 20.7344C125.744 20.7344 126.16 20.724 126.525 20.7031L126.431 23.8281ZM139.719 32.0625C139.719 34.1562 139.573 35.9323 139.281 37.3906C139 38.849 138.615 40.0365 138.125 40.9531C137.635 41.8594 137.057 42.5208 136.391 42.9375C135.724 43.3438 135.01 43.5469 134.25 43.5469C133.49 43.5469 132.776 43.3542 132.109 42.9688C131.443 42.5729 130.859 41.9271 130.359 41.0312C129.859 40.1354 129.464 38.9531 129.172 37.4844C128.891 36.0156 128.75 34.2083 128.75 32.0625C128.75 29.9062 128.891 28.0781 129.172 26.5781C129.464 25.0677 129.859 23.8438 130.359 22.9062C130.859 21.9583 131.443 21.276 132.109 20.8594C132.776 20.4323 133.49 20.2188 134.25 20.2188C135.01 20.2188 135.724 20.4271 136.391 20.8438C137.057 21.25 137.635 21.9219 138.125 22.8594C138.615 23.7969 139 25.0208 139.281 26.5312C139.573 28.0312 139.719 29.875 139.719 32.0625ZM136.234 32.0625C136.234 30.4271 136.182 29.0469 136.078 27.9219C135.974 26.7969 135.828 25.8854 135.641 25.1875C135.464 24.4792 135.255 23.9688 135.016 23.6562C134.776 23.3438 134.521 23.1875 134.25 23.1875C133.969 23.1875 133.703 23.349 133.453 23.6719C133.214 23.9844 133 24.4948 132.812 25.2031C132.635 25.901 132.495 26.8177 132.391 27.9531C132.286 29.0781 132.234 30.4479 132.234 32.0625C132.234 33.6667 132.286 35.0156 132.391 36.1094C132.495 37.1927 132.635 38.0677 132.812 38.7344C133 39.3906 133.214 39.8594 133.453 40.1406C133.703 40.4219 133.969 40.5625 134.25 40.5625C134.521 40.5625 134.776 40.4167 135.016 40.125C135.255 39.8229 135.464 39.3385 135.641 38.6719C135.828 37.9948 135.974 37.1146 136.078 36.0312C136.182 34.9479 136.234 33.625 136.234 32.0625ZM159.184 27.4844C159.184 28.3802 159.065 29.2604 158.825 30.125C158.596 30.9792 158.236 31.7708 157.747 32.5C157.268 33.2292 156.658 33.875 155.919 34.4375C155.179 34.9896 154.304 35.4115 153.294 35.7031C153.315 36.9635 153.341 38.2135 153.372 39.4531C153.414 40.6823 153.46 41.9062 153.512 43.125H149.7C149.867 40.7604 149.986 38.3958 150.059 36.0312C150.143 33.6667 150.184 31.2865 150.184 28.8906C150.184 27.5052 150.174 26.125 150.153 24.75C150.132 23.3646 150.091 21.9688 150.028 20.5625C150.58 20.3958 151.137 20.2865 151.7 20.2344C152.273 20.1823 152.757 20.1562 153.153 20.1562C153.434 20.1562 153.778 20.1875 154.184 20.25C154.601 20.3125 155.028 20.4375 155.466 20.625C155.914 20.8021 156.356 21.0573 156.794 21.3906C157.242 21.7135 157.643 22.151 157.997 22.7031C158.351 23.2448 158.637 23.9062 158.856 24.6875C159.075 25.4688 159.184 26.401 159.184 27.4844ZM153.294 33.0469C153.637 32.9219 153.934 32.7552 154.184 32.5469C154.445 32.3385 154.669 32.1094 154.856 31.8594C155.054 31.599 155.216 31.3229 155.341 31.0312C155.476 30.7396 155.585 30.4531 155.669 30.1719C155.867 29.5156 155.981 28.8021 156.012 28.0312C156.012 28.0208 156.007 27.901 155.997 27.6719C155.997 27.4427 155.971 27.1562 155.919 26.8125C155.877 26.4583 155.804 26.0729 155.7 25.6562C155.596 25.2292 155.45 24.8229 155.262 24.4375C155.085 24.0521 154.851 23.7083 154.559 23.4062C154.278 23.0938 153.929 22.875 153.512 22.75C153.429 24.3646 153.372 25.9844 153.341 27.6094C153.309 29.224 153.294 30.8542 153.294 32.5V33.0469ZM170.284 43.0312C169.701 43.0104 169.133 42.9948 168.581 42.9844C168.04 42.974 167.498 42.9688 166.956 42.9688C166.144 42.9688 165.342 42.9792 164.55 43C163.758 43.0312 162.941 43.0729 162.097 43.125C162.191 41.1875 162.264 39.2708 162.316 37.375C162.378 35.4688 162.409 33.5469 162.409 31.6094C162.409 29.7552 162.383 27.9167 162.331 26.0938C162.29 24.2604 162.211 22.4167 162.097 20.5625C162.201 20.5729 162.321 20.5781 162.456 20.5781C162.571 20.5885 162.711 20.5938 162.878 20.5938C163.045 20.5938 163.232 20.5938 163.441 20.5938C163.774 20.5938 164.133 20.5885 164.519 20.5781C164.915 20.5573 165.31 20.5312 165.706 20.5C165.571 22 165.472 23.5781 165.409 25.2344C165.357 26.8906 165.321 28.5677 165.3 30.2656C165.29 31.9531 165.279 33.6406 165.269 35.3281C165.269 37.0052 165.253 38.625 165.222 40.1875C166.076 40.1667 166.904 40.125 167.706 40.0625C168.519 40 169.378 39.901 170.284 39.7656V43.0312ZM179.525 43.125C179.473 42.4062 179.421 41.6823 179.369 40.9531C179.327 40.224 179.275 39.4896 179.213 38.75C178.754 38.7188 178.311 38.6875 177.884 38.6562C177.457 38.625 177.025 38.6094 176.588 38.6094H176.384C176.332 39.3594 176.285 40.099 176.244 40.8281C176.202 41.5573 176.166 42.2812 176.134 43L172.228 42.9375C172.874 39.2188 173.457 35.5104 173.978 31.8125C174.499 28.1146 174.942 24.3854 175.306 20.625L180.009 20.7031C180.405 24.4219 180.879 28.1198 181.431 31.7969C181.994 35.4635 182.65 39.1562 183.4 42.875L179.525 43.125ZM177.697 24.5625C177.489 26.4792 177.291 28.3906 177.103 30.2969C176.916 32.2031 176.744 34.125 176.588 36.0625C176.806 36.0833 177.03 36.0938 177.259 36.0938C177.489 36.0938 177.723 36.0938 177.963 36.0938H178.978C178.801 34.1562 178.603 32.2344 178.384 30.3281C178.166 28.4219 177.936 26.5 177.697 24.5625ZM195.812 20.5938C194.979 23.2396 194.198 25.9115 193.469 28.6094C192.75 31.2969 192.068 33.8958 191.422 36.4062V37.375C191.422 37.8958 191.427 38.3906 191.438 38.8594C191.458 39.3177 191.479 39.776 191.5 40.2344C191.521 40.6823 191.547 41.1458 191.578 41.625C191.62 42.0938 191.667 42.5938 191.719 43.125H187.969C188.052 42.4792 188.125 41.8802 188.188 41.3281C188.25 40.7656 188.297 40.2135 188.328 39.6719C188.37 39.1302 188.401 38.5729 188.422 38C188.443 37.4271 188.453 36.8021 188.453 36.125C188.161 34.9271 187.854 33.6823 187.531 32.3906C187.219 31.099 186.896 29.8021 186.562 28.5C186.229 27.1979 185.896 25.9062 185.562 24.625C185.229 23.3333 184.901 22.0885 184.578 20.8906L188.484 20.5625C188.526 21.4167 188.594 22.3229 188.688 23.2812C188.792 24.2292 188.911 25.1979 189.047 26.1875C189.182 27.1771 189.333 28.1771 189.5 29.1875C189.667 30.1979 189.839 31.1875 190.016 32.1562C190.214 31.1667 190.406 30.1615 190.594 29.1406C190.792 28.1094 190.974 27.0938 191.141 26.0938C191.307 25.0938 191.458 24.1198 191.594 23.1719C191.74 22.224 191.865 21.3333 191.969 20.5L195.812 20.5938Z" fill="white"/>
</g>
<defs>
<filter id="filter0_ii_15_638" x="0" y="-2" width="260" height="65" filterUnits="userSpaceOnUse" color-interpolation-filters="sRGB">
<feFlood flood-opacity="0" result="BackgroundImageFix"/>
<feBlend mode="normal" in="SourceGraphic" in2="BackgroundImageFix" result="shape"/>
<feColorMatrix in="SourceAlpha" type="matrix" values="0 0 0 0 0 0 0 0 0 0 0 0 0 0 0 0 0 0 127 0" result="hardAlpha"/>
<feMorphology radius="6" operator="erode" in="SourceAlpha" result="effect1_innerShadow_15_638"/>
<feOffset dy="1"/>
<feComposite in2="hardAlpha" operator="arithmetic" k2="-1" k3="1"/>
<feColorMatrix type="matrix" values="0 0 0 0 0.233333 0 0 0 0 0.453882 0 0 0 0 1 0 0 0 1 0"/>
<feBlend mode="normal" in2="shape" result="effect1_innerShadow_15_638"/>
<feColorMatrix in="SourceAlpha" type="matrix" values="0 0 0 0 0 0 0 0 0 0 0 0 0 0 0 0 0 0 127 0" result="hardAlpha"/>
<feMorphology radius="3" operator="erode" in="SourceAlpha" result="effect2_innerShadow_15_638"/>
<feOffset dy="-2"/>
<feComposite in2="hardAlpha" operator="arithmetic" k2="-1" k3="1"/>
<feColorMatrix type="matrix" values="0 0 0 0 0.0784314 0 0 0 0 0.054902 0 0 0 0 0.4 0 0 0 1 0"/>
<feBlend mode="normal" in2="effect1_innerShadow_15_638" result="effect2_innerShadow_15_638"/>
</filter>
</defs>
</svg>
